<svg xmlns="http://www.w3.org/2000/svg" width="440" height="280" viewBox="0 0 440 280">
  <defs>
    <linearGradient id="bg" x1="0%" y1="0%" x2="100%" y2="100%">
      <stop offset="0%" style="stop-color:#6BAECF"/>
      <stop offset="100%" style="stop-color:#94C8E0"/>
    </linearGradient>
  </defs>
  <rect width="440" height="280" fill="url(#bg)"/>
  <!-- 冰山背景装饰 -->
  <polygon points="260,280 340,120 420,280" fill="#ffffff" opacity="0.08"/>
  <polygon points="340,280 400,160 460,280" fill="#ffffff" opacity="0.06"/>
  <!-- 图标 -->
  <rect x="40" y="60" width="128" height="128" rx="24" fill="#F5F3EF" opacity="0.15"/>
  <rect x="44" y="64" width="120" height="120" rx="21" fill="url(#bg)"/>
  <path d="M68 108 Q88 94 108 108 Q124 118 134 108" stroke="#F5F3EF" stroke-width="5" fill="none" stroke-linecap="round" opacity="0.9"/>
  <path d="M63 130 Q90 148 111 130 Q128 120 138 134" stroke="#F5F3EF" stroke-width="5" fill="none" stroke-linecap="round" opacity="0.50"/>
  <!-- 标题 -->
  <text x="210" y="118" font-family="sans-serif" font-size="42" font-weight="700" fill="#ffffff">通译</text>
  <text x="210" y="156" font-family="sans-serif" font-size="18" font-weight="400" fill="#ffffff" opacity="0.75">AI 双语网页翻译</text>
  <!-- 底部标签 -->
  <rect x="210" y="178" width="100" height="24" rx="12" fill="#ffffff" opacity="0.18"/>
  <text x="260" y="195" font-family="sans-serif" font-size="12" font-weight="500" fill="#ffffff" text-anchor="middle">6 种语言</text>
  <rect x="318" y="178" width="100" height="24" rx="12" fill="#ffffff" opacity="0.18"/>
  <text x="368" y="195" font-family="sans-serif" font-size="12" font-weight="500" fill="#ffffff" text-anchor="middle">本地缓存</text>
</svg>
